Full Credits To Feel Free :)

 ######## ######## ######## ##          ######## ########  ######## ######## 
 ##       ##       ##       ##          ##       ##     ## ##       ##       
 ##       ##       ##       ##          ##       ##     ## ##       ##       
 ######   ######   ######   ##          ######   ########  ######   ######   
 ##       ##       ##       ##          ##       ##   ##   ##       ##       
 ##       ##       ##       ##          ##       ##    ##  ##       ##       
 ##       ######## ######## ########    ##       ##     ## ######## ######## 

 Genre:Adventure | Comedy | Romance 
 Language:English  http://www.imdb.com/title/tt1067774/
 Source:Russian/LU Thanks!

 Format : MPEG-4
 Format profile : Base Media
 Codec ID : isom
 File size : 1.26 GiB
 Duration : 1h 43mn
 Overall bit rate : 1 731 Kbps

 Video
 ID : 1
 Format : AVC
 Format/Info : Advanced Video Codec
 Format profile : High@L4.1
 Format settings, CABAC : Yes
 Format settings, ReFrames : 3 frames
 Format settings, GOP : N=1
 Codec ID : avc1
 Codec ID/Info : Advanced Video Coding
 Duration : 1h 43mn
 Bit rate mode : Variable
 Bit rate : 1 500 Kbps
 Maximum bit rate : 6 751 Kbps
 Width : 672 pixels
 Height : 360 pixels
 Display aspect ratio : 1.867
 Frame rate mode : Constant
 Frame rate : 25.000 fps
 Color space : YUV
 Chroma subsampling : 4:2:0
 Bit depth : 8 bits
 Scan type : Progressive
 Bits/(Pixel*Frame) : 0.248
 Stream size : 1.09 GiB (87%)
 Writing library : x264

 Audio
 ID : 2
 Format : AAC
 Format/Info : Advanced Audio Codec
 Format version : Version 4
 Format profile : LC
 Format settings, SBR : No
 Codec ID : 40
 Duration : 1h 43mn
 Bit rate mode : Variable
 Bit rate : 224 Kbps
 Maximum bit rate : 333 Kbps
 Channel(s) : 2 channels
 Channel positions : Front: L R
 Sampling rate : 44.1 KHz
 Stream size : 166 MiB (13%)


 Plot:
 Three young women vacationing in Paris find themselves whisked away to Monte
 Carlo after one of the girls is mistaken for a British heiress.


 Greets:

 INK,CRYS,IMAGINE,LKRG,FXG,3Li,FLAWL3SS,TA,iLLUSiON,ViSiON,DTRG 
 SAFCuk009,LU,TheFalcon007,MYSTiC,PrisM,Noir,WBZ,LAP,Rx,Kingdom,SAFCuk009+Fabreezy,
 HDLiTE,TWiZTED,ExtraTorrentRG.ELEKTRI4KA,MAGNAT,CM8
 And to all the other p2p grps past and present






 ==================================                             http://thepiratebay.org/user/hiest
 ==================================






 Screen Shots:
  http://leetleech.org/images/38792270054847092293.png
  http://leetleech.org/images/14108015668133110851.png
  http://leetleech.org/images/28360204689413416456.png
  http://leetleech.org/images/19297083237518116769.png


Full Credits To Feel Free :)

 ######## ######## ######## ##          ######## ########  ######## ######## 
 ##       ##       ##       ##          ##       ##     ## ##       ##       
 ##       ##       ##       ##          ##       ##     ## ##       ##       
 ######   ######   ######   ##          ######   ########  ######   ######   
 ##       ##       ##       ##          ##       ##   ##   ##       ##       
 ##       ##       ##       ##          ##       ##    ##  ##       ##       
 ##       ######## ######## ########    ##       ##     ## ######## ########